<?xml version="1.0" encoding="utf-8"?>
<!-- Generator: Adobe Illustrator 25.4.1, SVG Export Plug-In . SVG Version: 6.00 Build 0)  -->
<svg version="1.1" id="Capa_1" xmlns="http://www.w3.org/2000/svg" xmlns:xlink="http://www.w3.org/1999/xlink" x="0px" y="0px"
	 viewBox="0 0 386 380" style="enable-background:new 0 0 386 380;" xml:space="preserve">
<style type="text/css">
	.st0{display:none;}
	.st1{display:inline;}
</style>
<g class="st0">
	<path class="st1" d="M133.8,60.2l0.3,0.7l-10,5.1l-0.3-0.7l3.8-2l-14.3-28.4c-1,1.8-1.9,3.3-3.3,4c-1,0.5-1.7,0.2-2-0.3
		c-0.2-0.3-0.2-0.6-0.2-0.9c2.8-0.9,5.6-3.5,6.8-5.8l0.1-0.1L129.9,62L133.8,60.2z"/>
	<path class="st1" d="M153.9,43.4c1.8,5.4-1.4,11.3-7.2,13.3s-12-0.8-13.8-6.2c-1.5-4.6,0.6-9.5,4.8-12.1c-3.5,0.1-6.6-1.7-7.7-5
		c-1.4-4.1,1-8.5,5.6-10c4.5-1.5,9.1,0.6,10.4,4.7c1.1,3.3-0.3,6.7-3.2,8.6C147.7,36.2,152.3,38.9,153.9,43.4z M140.2,37.2
		c3.2-1.1,4.2-4.3,2.9-8.2c-1.3-3.8-4-6-7.2-4.9s-4.2,4.5-2.9,8.3C134.2,36.3,136.9,38.3,140.2,37.2z M151,44.4
		c-1.8-5.3-6-7.9-10.6-6.4s-6.4,6.2-4.6,11.5c1.8,5.3,6,8,10.6,6.4C151,54.4,152.8,49.7,151,44.4z"/>
	<path class="st1" d="M193,47.2v0.6l-6,1.4l-0.3-4.9c-1.3,3.4-4.1,5.5-7.5,5.7c-5.1,0.4-9.4-3.6-9.8-9.5c-0.4-6.1,3.4-11.2,9-11.6
		c3.5-0.2,6.1,1.4,7.5,3.8l-1-14.3c-0.1-2-0.7-2.1-3.7-2v-0.6l6-1.4l2.2,30.9C189.4,47.2,190,47.3,193,47.2z M186.5,38.3
		c-0.4-5.9-3.8-8.8-7.6-8.5c-4.6,0.3-6.8,4.8-6.5,10.1c0.4,5.2,3.3,8.9,7.5,8.6C184.5,48.1,186.9,44.3,186.5,38.3z"/>
	<path class="st1" d="M212.3,45.5l0.6,0.5c-2.1,2.9-5.1,4.5-8.4,4.2c-6.1-0.5-9.6-5.9-9.1-11.4c0.6-6.2,5.1-10.1,10.7-9.6
		c4.5,0.4,8,3.4,7.8,8.8l-15.2-1.4c-0.1,0.5-0.2,1-0.2,1.5c-0.5,6.1,2.3,10.6,7,11C208.2,49.2,210.3,48,212.3,45.5z M198.9,35.7
		l10.4,0.9c1.2,0.1,1.7-0.5,1.8-1.5c0.2-2.6-1.6-5-5.1-5.3C202.1,29.5,199.8,32.2,198.9,35.7z"/>
	<path class="st1" d="M229,43.4c1.9-5.7,7.7-8.5,13-6.8c5.3,1.8,8.2,7.5,6.3,13.2s-7.7,8.6-13,6.8C229.9,54.9,227.1,49.1,229,43.4z
		 M245.3,48.8c1.8-5.3,0.6-10-3.6-11.5c-4.2-1.4-8.1,1.6-9.8,7c-1.8,5.4-0.6,10.1,3.6,11.6C239.8,57.3,243.5,54.2,245.3,48.8z"/>
	<path class="st1" d="M265.8,46.8c4.1,2.1,5.5,5.8,4.5,7.6c-0.4,0.8-1.3,1.2-2.3,0.7c-0.2-0.1-0.4-0.2-0.6-0.4
		c1.4-3.3,0.6-5.9-2.3-7.4c-4.2-2.2-7.8,0.5-10.2,5c-2.6,5-1.8,10.3,2.4,12.4c2.3,1.2,4.5,1,7.5-0.7l0.4,0.7c-3.1,2-6.5,2.2-9.3,0.7
		c-5.4-2.8-6.4-9-3.9-13.8C254.9,46.1,260.6,44.1,265.8,46.8z"/>
	<path class="st1" d="M275.5,55l6.9-1.7l-2,3l7.2,4.9l-1.6,1l-6.5-4.5l-7.5,11c-1.6,2.4-1.1,4.4,0.5,5.5c1.3,0.9,2.4,0.8,3.7,0.3
		l0.2,0.6c-2,0.9-3.9,0.6-5.5-0.5c-2-1.4-3.3-4.1-1.3-7l7.7-11.3L275.5,55z"/>
	<path class="st1" d="M294.4,92l-0.4,0.5l-5.4-3.6l3.1-3.4c-3.5,0.9-6.2,0.9-8.6-1.3c-1.4-1.3-2.1-2.7-2-4.1
		c0.1-1.3,0.6-2.5,2.9-5.1l6.5-7.2c1.3-1.5,1-1.9-1.1-4l0.4-0.5l5.2,3.4l-8.5,9.4c-2.1,2.3-2.7,3.4-3,4.4c-0.2,1,0,2.2,1.2,3.4
		c1.6,1.5,3.7,1.8,7.8,0.6l7.4-8.1c1.3-1.5,1-1.9-1.1-4l0.4-0.5l5.2,3.4L293,87.8C291.7,89.3,292,89.7,294.4,92z"/>
	<path class="st1" d="M315.9,104.5c-4.9,3.8-11.2,3.5-14.6-0.9c-2.1-2.7-2.3-5.7-1.2-8.1l-4,0.7l-0.3-0.4l24.1-19
		c1.6-1.2,1.3-1.8-0.4-4.1l0.5-0.4l4.5,4.2L309.7,88c3.4-0.7,6.6,0.5,8.6,3C321.5,95,320.6,100.8,315.9,104.5z M313.7,102.3
		c4.1-3.2,5.5-7.7,2.9-11c-2.9-3.7-7.4-3.5-12.2,0.2c-4.7,3.7-5.1,8.1-2.7,11.1C304.6,106.2,309.6,105.6,313.7,102.3z"/>
	<path class="st1" d="M333.7,115l-2.3,1.1c-0.4-0.9-0.7-1.6-0.9-2c-1.6-2.8-3.5-3.3-6.2-3.3l-11.8,6.8l1.7,3.1l-0.7,0.4l-4.8-8.3
		l0.7-0.4l1.8,3l13.7-7.9c1.7-1,1.6-1.5,0.1-4.1l0.6-0.3l3.9,4.8l-4.2,2.4c2.7-0.1,6,0.5,7.9,3.7C333.4,114.4,333.5,114.7,333.7,115
		z"/>
	<path class="st1" d="M327.8,140.5l-0.1,0.8c-3.6-0.5-6.4-2.4-7.6-5.5c-2.4-5.7,0.8-11.2,5.8-13.3c5.8-2.4,11.4-0.2,13.5,5
		c1.7,4.1,0.7,8.7-4.1,11l-5.9-14.1c-0.5,0.1-1,0.3-1.4,0.5c-5.6,2.4-8.3,7-6.5,11.4C322.6,138.7,324.6,140,327.8,140.5z
		 M330.2,124.2l4,9.6c0.4,1.1,1.2,1.3,2.1,0.9c2.4-1,3.6-3.7,2.3-6.9C337.1,124.1,333.7,123.3,330.2,124.2z"/>
	<path class="st1" d="M332.4,178.5l-0.6,0.1l-1.9-5.9l4.9-0.8c-3.5-1-5.8-3.6-6.3-6.9c-0.8-5.1,2.8-9.7,8.6-10.6
		c6.1-1,11.4,2.4,12.3,7.9c0.6,3.5-0.9,6.2-3.1,7.8l14.2-2.2c2-0.3,2-0.9,1.6-3.8l0.6-0.1l1.9,5.9l-30.6,4.8
		C332.1,175,332.1,175.6,332.4,178.5z M340.8,171.3c5.9-0.9,8.4-4.6,7.8-8.4c-0.7-4.6-5.4-6.4-10.6-5.6c-5.1,0.8-8.6,4-7.9,8.2
		C330.8,170.2,334.8,172.2,340.8,171.3z"/>
	<path class="st1" d="M335.7,197.6l-0.4,0.7c-3.1-1.9-4.8-4.8-4.8-8.1c0.1-6.2,5.2-10,10.7-9.9c6.2,0.1,10.5,4.4,10.4,10
		c-0.1,4.5-2.8,8.2-8.2,8.4l0.2-15.2c-0.5,0-1-0.1-1.5-0.1c-6.1-0.1-10.4,3.1-10.5,7.8C331.7,193.8,333,195.8,335.7,197.6z
		 M344.5,183.5l-0.2,10.4c0,1.2,0.6,1.6,1.6,1.7c2.6,0,4.8-2,4.9-5.4C350.9,186.2,348,184.2,344.5,183.5z"/>
	<path class="st1" d="M352.8,219.3c0.2-0.7,0.8-1.1,1.4-1.2c3-0.2,8.4,4.3,6.6,11.6c-1.2,5.1-5.1,8.8-10.9,7.4
		c-6.7-1.6-12.8-11.9-18.9-21.5l-4,16.5l-2.1-1.6l4.4-18.5l0.2,0.1c9,13.7,14.5,20.5,20.8,22c4.4,1.1,8.5-0.3,9.6-4.8
		c1.4-5.9-3.1-8.6-6.9-8.5C352.7,220.3,352.7,219.8,352.8,219.3z"/>
	<path class="st1" d="M339.5,241.7c10.5,4.6,14.1,11.6,11.5,17.4c-2.5,5.8-10.1,7.9-20.6,3.3c-10.6-4.6-14.1-11.6-11.6-17.4
		C321.4,239.1,329,237,339.5,241.7z M331.7,259.6c10.1,4.4,16.4,4,18.6-0.9s-1.8-9.8-12-14.3s-16.5-4.1-18.7,0.9
		C317.5,250.2,321.5,255.1,331.7,259.6z"/>
	<path class="st1" d="M332.4,273.3c0.4-0.6,1.1-0.8,1.8-0.6c2.9,0.9,6.4,6.9,2.2,13.2c-2.9,4.3-7.9,6.5-12.8,3.2
		c-5.8-3.8-7.9-15.6-10.3-26.8l-9.4,14.1l-1.4-2.2l10.6-15.8l0.1,0.1c3.7,15.9,6.5,24.2,11.9,27.8c3.8,2.5,8.1,2.6,10.6-1.2
		c3.4-5.1,0.1-9.2-3.5-10.4C331.9,274.2,332.1,273.7,332.4,273.3z"/>
	<path class="st1" d="M294.2,300.2c-4.9-4.6-4.9-12-0.6-16.7c3.9-4.2,8.8-3.9,11-1.9c0.7,0.6,0.8,1.7,0.1,2.4
		c-0.2,0.2-0.3,0.3-0.6,0.5c-3.5-3-7-3.6-10-0.4c-3.6,3.8-2.4,9.6,1.6,13.4c4.5,4.2,10,3.6,13.3,0.2c1.6-1.7,2.2-3.5,2.3-4.5
		c0.1-0.9-0.6-1.5-0.7-2c-0.1-0.4,0-0.7,0.2-0.9c0.2-0.2,0.6-0.3,0.9-0.1c0.5,0.4,0.2,1.3,0.5,2.1c0.3,1.2,2.6,4,4.9,6.7l4.6,5.1
		l-10.1,10.7l-1.5-1.8l9.3-9.9l-2.4-2.7c-2.1-2.3-3.9-4.5-5.1-6.8c0,1.8-1,4.1-2.7,5.9C305,303.8,298.9,304.7,294.2,300.2z"/>
	<path class="st1" d="M245.8,318.9l-0.3-0.7l10.1-4.9l0.3,0.7l-3.9,1.9l13.8,28.6c1-1.8,1.9-3.2,3.4-3.9c1-0.5,1.7-0.2,2,0.4
		c0.2,0.3,0.2,0.6,0.1,0.9c-2.9,0.9-5.7,3.4-6.9,5.7l-0.1,0.1L249.7,317L245.8,318.9z"/>
	<path class="st1" d="M225.4,335.3c-1.7-5.5,1.6-11.3,7.5-13.1c5.9-1.8,11.9,1,13.7,6.5c1.4,4.6-0.7,9.5-5,12
		c3.5-0.1,6.6,1.8,7.6,5.1c1.3,4.1-1.2,8.5-5.7,9.9s-9.1-0.8-10.3-4.8c-1-3.3,0.4-6.7,3.3-8.6C231.4,342.6,226.8,339.8,225.4,335.3z
		 M228.3,334.3c1.7,5.3,5.9,8,10.5,6.6c4.6-1.5,6.5-6.1,4.8-11.4s-5.9-8.1-10.5-6.6C228.5,324.3,226.6,329,228.3,334.3z M239,341.7
		c-3.2,1-4.2,4.2-3,8.2c1.2,3.8,3.9,6,7.2,5c3.2-1,4.2-4.4,3-8.2C244.9,342.7,242.3,340.7,239,341.7z"/>
	<path class="st1" d="M186.4,330.7v-0.6l6.1-1.3l0.3,5c1.4-3.4,4.2-5.4,7.6-5.6c5.2-0.3,9.3,3.8,9.6,9.7c0.3,6.2-3.6,11.1-9.2,11.4
		c-3.5,0.2-6.1-1.5-7.4-3.9l0.7,14.3c0.1,2,0.7,2.1,3.6,2v0.6l-6.1,1.3l-1.6-31C189.9,330.8,189.3,330.7,186.4,330.7z M192.7,339.8
		c0.3,6,3.7,8.8,7.5,8.6c4.6-0.2,6.9-4.7,6.7-10c-0.3-5.2-3.1-8.9-7.3-8.7C194.9,330,192.4,333.7,192.7,339.8z"/>
	<path class="st1" d="M167,332.1l-0.6-0.5c2.1-2.9,5.2-4.4,8.5-4c6.1,0.7,9.4,6.1,8.8,11.6c-0.7,6.2-5.3,10-10.9,9.4
		c-4.5-0.5-7.9-3.6-7.6-8.9l15.1,1.6c0.1-0.5,0.2-1,0.2-1.5c0.7-6-2.1-10.6-6.8-11.2C171.2,328.4,169.1,329.6,167,332.1z
		 M180.2,342.1l-10.3-1.1c-1.2-0.1-1.7,0.4-1.8,1.5c-0.3,2.6,1.5,5,5,5.4C176.9,348.3,179.2,345.6,180.2,342.1z"/>
	<path class="st1" d="M150.3,333.9c-2,5.6-7.8,8.4-13.1,6.5c-5.2-1.9-8-7.7-6-13.3c2-5.7,7.8-8.5,13.1-6.6
		C149.5,322.4,152.3,328.2,150.3,333.9z M134,328.1c-1.9,5.3-0.8,10,3.4,11.5s8.1-1.5,10-6.8c1.9-5.4,0.8-10.1-3.4-11.6
		S135.9,322.8,134,328.1z"/>
	<path class="st1" d="M113.5,329.7c-4.1-2.2-5.4-5.9-4.4-7.7c0.4-0.8,1.4-1.2,2.3-0.7c0.2,0.1,0.4,0.2,0.6,0.4
		c-1.5,3.3-0.7,5.9,2.2,7.4c4.1,2.2,7.9-0.4,10.3-4.9c2.7-5,1.9-10.2-2.1-12.4c-2.3-1.2-4.5-1-7.5,0.6l-0.4-0.7
		c3.2-2,6.5-2.1,9.3-0.6c5.3,2.9,6.3,9.1,3.7,13.9C124.4,330.6,118.7,332.6,113.5,329.7z"/>
	<path class="st1" d="M104,321.4l-6.9,1.6l2.1-2.9l-7.1-5l1.6-1l6.4,4.6l7.7-10.8c1.7-2.3,1.2-4.4-0.4-5.6c-1.3-0.9-2.4-0.9-3.7-0.4
		l-0.2-0.6c2-0.9,3.9-0.5,5.5,0.6c2,1.4,3.2,4.2,1.2,7.1l-7.9,11.1L104,321.4z"/>
	<path class="st1" d="M85.8,284l0.4-0.5l5.3,3.7l-3.2,3.3c3.5-0.9,6.2-0.8,8.6,1.4c1.4,1.3,2.1,2.7,1.9,4.1c-0.2,1.3-0.6,2.5-3,5
		l-6.6,7c-1.4,1.5-1,1.9,1.1,4l-0.4,0.5l-5.1-3.5l8.7-9.2c2.1-2.2,2.8-3.4,3.1-4.3c0.2-1,0.1-2.2-1.1-3.4c-1.6-1.5-3.7-1.8-7.8-0.8
		l-7.5,8c-1.4,1.5-1,1.9,1.1,4l-0.4,0.5l-5.1-3.5L87.4,288C88.4,286.8,88.2,286.4,85.8,284z"/>
	<path class="st1" d="M64.5,271.2c4.9-3.7,11.2-3.2,14.6,1.2c2.1,2.7,2.2,5.7,1,8.1l4.1-0.6l0.3,0.4L60,298.9
		c-1.6,1.2-1.4,1.7,0.4,4.1l-0.5,0.4l-4.5-4.3l15-11.3c-3.5,0.6-6.6-0.6-8.5-3.2C58.8,280.5,59.8,274.8,64.5,271.2z M66.6,273.4
		c-4.1,3.1-5.6,7.6-3.1,10.9c2.8,3.7,7.3,3.7,12.2,0c4.8-3.6,5.2-8,2.9-11C75.8,269.6,70.9,270.2,66.6,273.4z"/>
	<path class="st1" d="M46.9,260.3l2.3-1.1c0.4,0.9,0.7,1.6,0.9,2c1.6,2.9,3.4,3.4,6.1,3.4l11.9-6.6l-1.7-3.1l0.7-0.4l4.7,8.4
		l-0.7,0.4l-1.7-3.1l-13.9,7.7c-1.7,1-1.6,1.5-0.2,4.1l-0.6,0.3l-3.8-4.9l4.2-2.3c-2.7,0.1-6-0.6-7.8-3.9
		C47.3,260.9,47.1,260.6,46.9,260.3z"/>
	<path class="st1" d="M53.3,234.9l0.1-0.8c3.6,0.5,6.3,2.6,7.5,5.7c2.3,5.7-1,11.2-6.1,13.2c-5.8,2.3-11.4,0-13.5-5.2
		c-1.7-4.2-0.6-8.7,4.3-10.9l5.6,14.2c0.5-0.1,1-0.3,1.4-0.5c5.6-2.2,8.4-6.8,6.7-11.2C58.5,236.8,56.5,235.5,53.3,234.9z
		 M50.6,251.2l-3.8-9.7c-0.4-1.1-1.2-1.3-2.1-0.9c-2.4,1-3.7,3.7-2.4,6.9C43.7,251.2,47.1,252,50.6,251.2z"/>
	<path class="st1" d="M49.4,196.8l0.6-0.1l1.8,5.9l-4.9,0.7c3.5,1.1,5.7,3.7,6.2,7.1c0.7,5.1-2.9,9.6-8.8,10.4
		c-6.1,0.8-11.4-2.7-12.2-8.2c-0.5-3.5,1-6.2,3.2-7.7l-14.2,2c-2,0.3-2,0.8-1.7,3.8l-0.6,0.1l-1.8-5.9l30.7-4.3
		C49.7,200.3,49.7,199.8,49.4,196.8z M40.9,203.9c-5.9,0.8-8.5,4.4-7.9,8.2c0.6,4.6,5.3,6.5,10.5,5.8c5.1-0.7,8.6-3.9,8-8
		C50.9,205.2,46.9,203,40.9,203.9z"/>
	<path class="st1" d="M46.4,177.7l0.4-0.7c3.1,1.9,4.8,4.8,4.7,8.1c-0.1,6.2-5.3,9.9-10.8,9.8c-6.2-0.1-10.5-4.4-10.3-10.1
		c0.1-4.5,2.9-8.2,8.2-8.3l-0.3,15.2c0.5,0.1,1,0.1,1.5,0.1c6.1,0.1,10.4-3,10.5-7.7C50.4,181.5,49.1,179.5,46.4,177.7z M37.5,191.6
		l0.2-10.4c0-1.2-0.6-1.7-1.6-1.7c-2.6-0.1-4.8,1.9-4.9,5.4C31.1,188.9,34,191,37.5,191.6z"/>
	<path class="st1" d="M29.8,155.6c-0.2,0.7-0.8,1.1-1.5,1.1c-3,0.1-8.3-4.4-6.4-11.7c1.3-5,5.3-8.7,11-7.2
		c6.7,1.7,12.5,12.1,18.5,21.9l4.3-16.4l2,1.6L53,163.3l-0.2-0.1c-8.7-13.8-14.1-20.7-20.4-22.4c-4.4-1.1-8.5,0.2-9.7,4.6
		c-1.5,5.9,2.9,8.7,6.8,8.7C29.9,154.7,29.9,155.2,29.8,155.6z"/>
	<path class="st1" d="M43.5,133.6c-10.4-4.8-13.8-11.8-11.2-17.6c2.6-5.7,10.2-7.7,20.6-2.9c10.5,4.8,13.9,11.9,11.3,17.6
		C61.6,136.4,54,138.4,43.5,133.6z M51.7,115.8c-10-4.6-16.4-4.3-18.6,0.5c-2.2,4.9,1.7,9.9,11.7,14.5c10.1,4.7,16.4,4.4,18.7-0.5
		C65.7,125.5,61.8,120.5,51.7,115.8z"/>
	<path class="st1" d="M51.3,102c-0.4,0.6-1.1,0.8-1.8,0.6c-2.9-0.9-6.3-7-2-13.2c3-4.3,8-6.3,12.8-3c5.7,4,7.6,15.7,9.8,27l9.7-13.9
		l1.3,2.2l-10.9,15.6l-0.1-0.1c-3.4-16-6-24.3-11.4-28.1c-3.7-2.6-8.1-2.8-10.7,1c-3.5,5-0.3,9.2,3.3,10.5
		C51.7,101.2,51.5,101.6,51.3,102z"/>
	<path class="st1" d="M89.9,75.9c4.8,4.7,4.7,12.1,0.2,16.7c-4,4.1-8.9,3.7-11,1.7c-0.7-0.6-0.8-1.7,0-2.4c0.2-0.2,0.3-0.3,0.6-0.5
		c3.4,3.1,6.9,3.7,10,0.5c3.7-3.8,2.6-9.6-1.4-13.4c-4.4-4.3-10-3.8-13.3-0.4c-1.7,1.7-2.3,3.4-2.3,4.5c-0.1,0.9,0.5,1.5,0.6,2
		c0.1,0.4,0,0.7-0.2,0.9c-0.2,0.2-0.6,0.3-0.9,0c-0.5-0.4-0.2-1.3-0.4-2.1c-0.3-1.2-2.5-4.1-4.8-6.8l-4.5-5.1L72.8,61l1.5,1.9
		l-9.5,9.7l2.4,2.7c2.1,2.3,3.9,4.6,5,6.9c0.1-1.8,1-4.1,2.8-5.9C79.1,72.1,85.3,71.3,89.9,75.9z"/>
</g>
<g>
	<path d="M113.8,41.9c-1.2,2-2.5,3.4-3.5,4.3c-0.3,0.3-0.7,0.6-0.9,0.7c-0.7,0.4-1.3,0.3-1.5-0.1c-0.2-0.4-0.2-1,0.8-1.7
		c2.4-1.6,4.9-3.8,7.1-6.4l0.4-0.2l-2.7,36.8l-2.2,1.4L113.8,41.9z"/>
	<path d="M131.3,46.2c-1.5-1.3-2.8-2.9-3.2-4c-2.1-4.8,1.7-10.1,6.2-12.1c3.4-1.5,6.4-0.9,7.6,1.7c1,2.3,1,7.1-7.6,13.1
		c1.6,1.2,3.5,2.6,4.6,5.1c2.4,5.5-1.1,12.1-7.3,14.8c-4.9,2.2-8.7,0.7-10.1-2.5C119.6,58.3,121.6,52.8,131.3,46.2z M131.7,63.9
		c5.2-2.3,7.1-7.4,5.2-11.8c-0.9-2.1-2.5-3.6-4.9-5.5c-8.7,5.8-9.7,10.9-8.1,14.7C125.1,64.2,127.8,65.6,131.7,63.9z M133.6,44.6
		c6.1-4.3,7.5-8.6,6.1-11.7c-1-2.4-3.1-2.9-5.7-1.7c-4,1.8-5.4,6-4,9.3C130.7,42.1,131.8,43.3,133.6,44.6z"/>
	<path d="M168.9,33.6c1.9-0.3,3.2,0.1,3.9,0.8l7.1-14.5l2.6-0.4l-12.1,24.4c-1.4,2.8-2.3,4.7-2,6c0.2,1,1,1.5,2.2,1.3
		c4-0.7,6.7-4.5,11.8-11.1l0.2,0.9c-5,6.3-7.7,10.4-12.6,11.2c-2,0.3-3.6-0.4-3.9-2.2c-0.1-0.8,0-1.5,0.6-2.9l-0.1,0
		c-2.5,3.7-5.3,6.5-8.2,7c-2.2,0.4-3.9-0.7-4.2-2.4C153.3,47.3,161.3,34.9,168.9,33.6z M171,36c-0.2-0.4-0.3-0.8-0.6-1
		c-0.5-0.4-1.1-0.6-2.1-0.4c-6.3,1.1-12.4,12.2-11.7,16.8c0.2,0.9,0.7,2,2.1,1.8c1.9-0.3,4.4-2.7,7.3-6.9c1.1-1.6,2.5-3.8,3.8-6.3
		l1.6-3.3C171.3,36.6,171.2,36.3,171,36z"/>
	<path d="M193.4,31.4c1.6,0,2.6,0.7,2.7,1.7c0.1,3-7.3,8.3-13.5,8.7c-0.7,1.5-1.1,3-1.1,4.2c0.1,2.1,1.1,3.2,3,3.1
		c4.5-0.1,8.9-3.4,14.9-9.4l0,0.9c-5.9,5.7-10.4,9.2-15.6,9.4c-3.1,0.1-5-1.4-5.1-4C178.7,41.6,187,31.6,193.4,31.4z M194,33.2
		c0-0.6-0.5-1-1.1-0.9c-3.5,0.1-7.7,4.6-9.9,8.8C188.8,40.6,194.1,36.1,194,33.2z"/>
	<path d="M210.3,46.8c1-4.7,12-13.2,19.1-11.7c2.4,0.5,3.7,1.9,3.3,3.9c-1,4.7-12,13.2-19.1,11.7C211.2,50.2,210,48.7,210.3,46.8z
		 M214.5,49.9c6.1,1.2,14.7-7.2,15.6-11.5c0.3-1.7-0.3-2.4-1.5-2.6c-6.1-1.2-14.7,7.2-15.6,11.6C212.6,49,213.3,49.7,214.5,49.9z"/>
	<path d="M249.1,40.6c2,0.7,2.7,1.9,2.3,3c-0.3,0.8-1,1.3-1.8,1.1c-1.1-0.4-0.4-1.5-0.4-2.3c0-0.5-0.2-0.9-1-1.2
		c-4.6-1.5-13.9,4-15.6,9.1c-0.7,2,0,3.4,1.9,4c3.8,1.3,8.6-0.4,16.3-4.1l-0.3,0.9c-7.5,3.4-12.2,5.3-17,3.7c-3-1-4.2-3-3.4-5.5
		C231.6,44.5,242.8,38.5,249.1,40.6z"/>
	<path d="M258.8,45.9l-4.2-1.9l0.3-0.6l4.7,2.1l6.3-3.7l2.3,1l-6.3,3.7l4.8,2.1l-0.3,0.6l-5.3-2.3l-18,10.4l-2.3-1L258.8,45.9z"/>
	<path d="M283.8,67.9l-0.5,0.8c-7.2,1.5-12.1,3.1-15.3,1.2c-1.9-1.1-2.4-2.8-1.5-4.2c0.4-0.7,1.2-1.5,3.6-2.5l0-0.1
		c-4.6,1.4-9.7,2.1-13,0.1c-1.8-1.1-2.6-2.8-1.7-4.2c0.7-1.1,1.8-1.6,4.7-2.7l12.2-4.8l2.2,1.3l-14.1,5.6c-0.7,0.3-2.2,0.9-2.8,2
		c-0.5,0.8-0.5,1.8,0.7,2.5c2,1.2,6,1.1,11.6-0.4c3.6-1,7.6-2.3,10.5-3.5l2.6-1.1l2.3,1.4l-12.1,4.8c-1.4,0.6-4.1,1.7-4.9,3
		c-0.5,0.8-0.3,1.7,0.7,2.3C271.5,71,276.5,69.5,283.8,67.9z"/>
	<path d="M281.5,69l26.9-6.8l2,1.7l-19.8,5l0.1,0c4.2-0.4,7.6,0,9.5,1.6c2.1,1.8,2.2,3.6,1.1,5c-3.1,3.7-17.8,5.1-23.2,0.6
		c-1.9-1.6-2.2-3.4-1-4.9C277.9,70.1,279.6,69.4,281.5,69z M279,75.8c4.5,3.8,17,1.6,20.1-2.1c0.9-1,0.9-2.1,0-2.9
		c-1.5-1.2-4.2-1.4-8.4-1.3c-2.3,0.1-4.7,0.4-6,0.7c-3.1,0.7-4.8,1.6-5.8,2.8C278.3,73.8,277.8,74.8,279,75.8z"/>
	<path d="M303.9,84.2c-3.8-0.1-8,0.1-11.1,0.4l-2.8,0.3l-1.8-1.9l21.9-2.2l1.8,1.9l-8,0.8l0,0.1c4.8-0.1,10.1,0.6,12.2,2.9
		c1.2,1.3,1.4,2.8,0.6,3.6c-0.6,0.6-1.6,0.8-2.2,0.1c-0.5-0.5-0.4-1,0.1-1.6c0.6-0.6,1.1-1.2,0.5-1.8
		C313.2,84.6,308.1,84.3,303.9,84.2z"/>
	<path d="M325.4,98.6c1,1.3,0.9,2.6,0.1,3.2c-2.5,1.8-10.9-1.3-14.8-6.1c-1.6,0.3-3.1,0.8-4.1,1.5c-1.7,1.2-2,2.8-0.9,4.2
		c2.7,3.7,7.9,5.4,16.2,6.9l-0.8,0.6c-8-1.6-13.5-3.3-16.6-7.5c-1.8-2.5-1.7-4.9,0.4-6.4C308.7,92.2,321.7,93.4,325.4,98.6z
		 M324.3,100.1c0.5-0.4,0.5-0.9,0.1-1.5c-2.1-2.8-8.2-3.8-12.9-3.1C315.3,100,322,101.8,324.3,100.1z"/>
	<path d="M343.3,131.3c0.7,1.8,0.6,3.2,0,3.9l15.7,3.9l1,2.4l-26.4-6.6c-3-0.8-5.1-1.2-6.3-0.7c-1,0.4-1.3,1.3-0.8,2.4
		c1.5,3.7,5.9,5.6,13.4,9.2l-0.9,0.4c-7.2-3.5-11.8-5.3-13.7-10c-0.7-1.8-0.4-3.6,1.3-4.3c0.7-0.3,1.5-0.3,2.9-0.1l0-0.1
		c-4.1-1.6-7.5-3.8-8.6-6.5c-0.8-2-0.2-4,1.5-4.7C326.6,119,340.5,124.3,343.3,131.3z M341.5,134c0.4-0.3,0.7-0.5,0.8-0.8
		c0.3-0.5,0.3-1.2-0.1-2.1c-2.4-5.9-14.5-9.6-18.9-7.8c-0.9,0.4-1.8,1.1-1.3,2.5c0.7,1.8,3.5,3.7,8.3,5.7c1.8,0.7,4.2,1.7,6.9,2.3
		l3.5,0.9C341,134.3,341.2,134.2,341.5,134z"/>
	<path d="M350.7,154.8c0.4,1.6-0.1,2.7-1.1,3c-3,0.7-9.6-5.3-11.4-11.3c-1.6-0.4-3.2-0.4-4.4-0.1c-2,0.5-2.9,1.8-2.4,3.6
		c1.1,4.4,5.3,8,12.4,12.6l-0.9,0.2c-6.8-4.5-11.2-8.2-12.5-13.2c-0.8-3,0.3-5.2,2.8-5.8C337.7,142.6,349.2,148.6,350.7,154.8z
		 M349.1,155.8c0.6-0.1,0.8-0.7,0.7-1.3c-0.8-3.4-6.1-6.6-10.7-7.8C340.7,152.2,346.3,156.5,349.1,155.8z"/>
	<path d="M362.1,201.5c2.6,0,4.2-1.9,4.1-5.1c-0.1-3.8-2.7-7.7-5.8-7.7c-1.1,0-1.7,0.4-2.4,0.5c-0.9,0-1.3-0.5-1.3-1.1
		c0-1,1.2-1.3,2-1.3c4.3-0.1,8.4,4.8,8.5,10.8c0.1,3.9-1.7,6.6-4.9,6.7c-6.3,0.1-13.2-11.7-23.7-30.8l0.2,15.5l-2.1-0.5l-0.3-19.4
		l0.5,0C347.9,188.9,355.6,201.7,362.1,201.5z"/>
	<path d="M362.4,223.7c0.6,2.2,0.7,4.2,0.4,5.9c-0.6,3.6-3.2,5.3-6.5,4.7c-7.3-1.3-17.5-13.5-20-22.8c-0.6-2.1-0.8-4.2-0.5-6
		c0.6-3.6,3.2-5.3,6.5-4.7C349.7,202.1,359.9,214.1,362.4,223.7z M341.7,203.4c-2.7-0.5-4.6,0.2-5.1,3c-1.4,8,11.2,23.6,20.5,25.3
		c2.7,0.5,4.6-0.2,5.1-3C363.6,220.7,351,205,341.7,203.4z"/>
	<path d="M347.7,259c2.5,0.9,4.6-0.2,5.7-3.3c1.3-3.6,0.3-8.2-2.7-9.3c-1-0.4-1.7-0.2-2.4-0.4c-0.9-0.3-1.1-1-0.8-1.5
		c0.4-1,1.6-0.8,2.4-0.5c4,1.5,6.1,7.5,4,13.1c-1.3,3.6-3.9,5.6-7,4.4c-5.9-2.2-8.1-15.7-11-37.3l-5.4,14.6l-1.8-1.2l6.7-18.2
		l0.5,0.2C339.1,242.1,341.6,256.8,347.7,259z"/>
	<path d="M330.4,248.8c-0.3,0.6-0.9,0.7-1.5,0.3c-0.2-0.1-0.5-0.4-0.9-0.6c-0.8-0.4-2.4-0.4-3.6,1.9c-3.3,5.9-0.9,17.4,4.8,20.7
		c2.4,1.4,4.4,0.4,5.6-1.6c1.9-3.4,1.8-7.4,0.7-10.8l0.4-0.8l6.2,20.9l-5.8,10.2l-1.5-1.5l5.9-10.5l-3.9-13.4
		c0.1,2.4-0.5,4.9-1.8,7.1c-1.7,3.1-4.5,4.2-7.3,2.7c-6-3.4-7.7-16.8-3.9-23.5c1.8-3.2,4.4-4,5.9-3.1
		C330.5,247.2,330.8,248.1,330.4,248.8z"/>
	<path d="M304.5,294.4c-0.8-0.8-0.8-2.1,0-2.9c0.8-0.8,2.1-0.8,2.9,0s0.8,2.1,0,2.9C306.6,295.2,305.3,295.2,304.5,294.4z"/>
	<path d="M277.1,339.5c1.2-2,2.5-3.5,3.5-4.3c0.3-0.3,0.7-0.6,0.9-0.7c0.7-0.4,1.3-0.3,1.5,0.1c0.2,0.4,0.2,1-0.8,1.7
		c-2.4,1.6-4.9,3.8-7.1,6.4l-0.4,0.2l2.7-36.8l2.2-1.4L277.1,339.5z"/>
	<path d="M259.6,335.2c1.5,1.3,2.8,2.9,3.2,4c2.1,4.8-1.7,10.1-6.2,12.1c-3.4,1.5-6.4,0.9-7.6-1.8c-1-2.3-1-7.1,7.7-13.1
		c-1.6-1.2-3.5-2.6-4.6-5.1c-2.4-5.5,1.1-12.1,7.3-14.8c4.9-2.2,8.7-0.7,10.1,2.5C271.4,323.1,269.4,328.6,259.6,335.2z
		 M257.3,336.8c-6.1,4.3-7.5,8.6-6.2,11.7c1,2.4,3.1,2.9,5.7,1.7c4-1.7,5.5-6,4-9.3C260.2,339.3,259.2,338.1,257.3,336.8z
		 M259.3,317.4c-5.2,2.3-7.1,7.4-5.2,11.8c0.9,2.1,2.5,3.6,4.9,5.5c8.7-5.8,9.8-10.9,8.1-14.7C265.8,317.1,263.1,315.7,259.3,317.4z
		"/>
	<path d="M222.1,347.7c-1.9,0.3-3.2-0.1-3.9-0.8l-7.1,14.5l-2.6,0.4l12.1-24.4c1.4-2.8,2.3-4.7,2-6c-0.2-1-1-1.5-2.2-1.3
		c-4,0.7-6.7,4.5-11.8,11.1l-0.2-0.9c5-6.3,7.7-10.4,12.6-11.2c2-0.3,3.6,0.4,3.9,2.2c0.1,0.8,0,1.5-0.6,2.9l0.1,0
		c2.5-3.7,5.3-6.5,8.2-7c2.2-0.4,4,0.7,4.3,2.4C237.6,334,229.6,346.5,222.1,347.7z M219.9,345.4c0.2,0.4,0.3,0.8,0.6,1
		c0.5,0.4,1.1,0.6,2.1,0.4c6.3-1.1,12.4-12.2,11.7-16.8c-0.2-0.9-0.7-2-2.1-1.8c-1.9,0.3-4.4,2.7-7.3,6.9c-1.1,1.6-2.5,3.8-3.8,6.3
		l-1.6,3.3C219.6,344.8,219.8,345,219.9,345.4z"/>
	<path d="M197.6,349.9c-1.6,0-2.6-0.7-2.7-1.7c-0.1-3,7.3-8.3,13.5-8.7c0.7-1.5,1.1-3,1.1-4.2c-0.1-2.1-1.1-3.2-3-3.1
		c-4.5,0.1-8.9,3.4-14.9,9.4l0-0.9c5.9-5.7,10.4-9.2,15.6-9.4c3.1-0.1,5,1.4,5.1,4C212.3,339.8,203.9,349.8,197.6,349.9z
		 M196.9,348.1c0,0.6,0.5,1,1.1,0.9c3.5-0.1,7.7-4.6,9.9-8.8C202.2,340.7,196.9,345.3,196.9,348.1z"/>
	<path d="M180.6,334.6c-1,4.7-12,13.2-19.1,11.7c-2.4-0.5-3.7-1.9-3.3-3.9c1-4.7,12-13.2,19.1-11.7
		C179.7,331.2,181,332.6,180.6,334.6z M176.5,331.4c-6.1-1.2-14.7,7.2-15.6,11.5c-0.3,1.7,0.3,2.4,1.5,2.6
		c6.1,1.2,14.7-7.2,15.6-11.6C178.3,332.4,177.6,331.7,176.5,331.4z"/>
	<path d="M141.8,340.7c-2-0.7-2.7-1.9-2.3-3c0.3-0.8,1-1.3,1.8-1.1c1.1,0.4,0.4,1.5,0.4,2.3c0,0.5,0.2,0.9,1,1.2
		c4.6,1.5,13.9-4,15.6-9.1c0.7-2,0-3.4-1.9-4c-3.8-1.3-8.6,0.4-16.3,4.1l0.3-0.9c7.5-3.4,12.3-5.3,17-3.7c3,1,4.2,3,3.4,5.5
		C159.3,336.8,148.2,342.8,141.8,340.7z"/>
	<path d="M132.1,335.5l4.2,1.9l-0.3,0.6l-4.7-2.1l-6.3,3.7l-2.3-1l6.3-3.7l-4.8-2.1l0.3-0.6l5.3,2.3l18-10.4l2.3,1L132.1,335.5z"/>
	<path d="M107.2,313.4l0.5-0.8c7.2-1.5,12.1-3.1,15.3-1.2c1.9,1.1,2.4,2.8,1.5,4.2c-0.4,0.7-1.2,1.5-3.6,2.5l0,0.1
		c4.6-1.4,9.7-2.1,12.9-0.1c1.8,1.1,2.6,2.8,1.7,4.2c-0.7,1.1-1.8,1.6-4.7,2.7l-12.3,4.8l-2.2-1.3l14.1-5.6c0.7-0.3,2.2-0.9,2.8-2
		c0.5-0.8,0.5-1.8-0.7-2.5c-2-1.2-6-1.1-11.6,0.4c-3.6,1-7.6,2.3-10.5,3.4l-2.6,1.1l-2.3-1.4l12.1-4.8c1.4-0.6,4.1-1.7,4.9-3
		c0.5-0.8,0.3-1.7-0.7-2.3C119.4,310.3,114.4,311.8,107.2,313.4z"/>
	<path d="M109.5,312.4l-26.9,6.7l-2-1.7l19.8-5l-0.1,0c-4.2,0.4-7.6-0.1-9.5-1.6c-2.1-1.8-2.2-3.6-1.1-5c3.1-3.7,17.8-5.1,23.1-0.6
		c1.9,1.6,2.2,3.4,1,4.9C113,311.2,111.3,311.9,109.5,312.4z M111.9,305.5c-4.5-3.8-17-1.6-20.1,2.1c-0.9,1-0.9,2.1,0,2.9
		c1.5,1.2,4.2,1.4,8.4,1.3c2.3-0.1,4.7-0.4,6-0.7c3.1-0.7,4.8-1.6,5.8-2.8C112.6,307.5,113.1,306.5,111.9,305.5z"/>
	<path d="M87.1,297.1c3.8,0.1,8-0.1,11.1-0.4l2.8-0.3l1.8,1.9l-21.9,2.2l-1.8-1.9l8-0.8l0-0.1c-4.8,0.1-10.1-0.6-12.2-2.9
		c-1.2-1.3-1.4-2.8-0.6-3.6c0.6-0.6,1.6-0.8,2.2-0.1c0.5,0.5,0.4,1-0.1,1.6c-0.6,0.6-1.1,1.2-0.5,1.8
		C77.7,296.6,82.8,297,87.1,297.1z"/>
	<path d="M65.5,282.7c-1-1.3-0.9-2.6-0.1-3.2c2.5-1.8,10.9,1.3,14.8,6.1c1.6-0.3,3.1-0.8,4.1-1.5c1.7-1.2,2-2.8,0.9-4.2
		c-2.7-3.7-7.9-5.4-16.2-6.9l0.8-0.6c8,1.6,13.5,3.3,16.6,7.5c1.8,2.5,1.7,4.9-0.4,6.5C82.2,289.1,69.2,287.9,65.5,282.7z
		 M66.6,281.2c-0.5,0.4-0.5,0.9-0.1,1.5c2.1,2.8,8.2,3.8,12.9,3.2C75.7,281.3,68.9,279.5,66.6,281.2z"/>
	<path d="M47.6,250c-0.7-1.8-0.6-3.2,0-3.9l-15.7-3.9l-1-2.4l26.4,6.6c3,0.8,5.1,1.2,6.3,0.7c1-0.4,1.3-1.3,0.8-2.4
		c-1.5-3.7-5.9-5.6-13.4-9.2l0.9-0.4c7.2,3.5,11.8,5.3,13.6,10c0.7,1.8,0.4,3.6-1.3,4.3c-0.7,0.3-1.5,0.3-2.9,0l0,0.1
		c4.1,1.7,7.5,3.8,8.6,6.5c0.8,2,0.2,4-1.5,4.7C64.3,262.3,50.5,257,47.6,250z M49.5,247.3c-0.4,0.3-0.7,0.5-0.8,0.8
		c-0.3,0.5-0.3,1.2,0.1,2.1c2.4,5.9,14.5,9.6,18.9,7.8c0.9-0.4,1.8-1.1,1.3-2.5c-0.7-1.8-3.5-3.7-8.3-5.7c-1.8-0.7-4.2-1.7-6.9-2.3
		l-3.5-0.9C50,247,49.8,247.1,49.5,247.3z"/>
	<path d="M40.2,226.5c-0.4-1.6,0.1-2.7,1.1-3c3-0.7,9.6,5.3,11.4,11.3c1.6,0.4,3.2,0.4,4.4,0.1c2-0.5,2.9-1.8,2.4-3.6
		c-1.1-4.4-5.3-8-12.4-12.6l0.9-0.2c6.8,4.5,11.2,8.2,12.5,13.2c0.7,3-0.3,5.2-2.8,5.8C53.3,238.7,41.8,232.6,40.2,226.5z
		 M41.9,225.5c-0.6,0.1-0.8,0.7-0.7,1.3c0.8,3.4,6.1,6.6,10.7,7.8C50.2,229,44.7,224.8,41.9,225.5z"/>
	<path d="M28.9,179.7c-2.6,0-4.2,1.9-4.1,5.1c0.1,3.8,2.7,7.7,5.8,7.7c1.1,0,1.7-0.4,2.4-0.5c0.9,0,1.3,0.5,1.3,1.1
		c0,1-1.2,1.3-2,1.3c-4.3,0.1-8.4-4.8-8.5-10.8c-0.1-3.9,1.7-6.6,4.9-6.7c6.3-0.1,13.2,11.7,23.7,30.8l-0.3-15.5l2.1,0.5l0.3,19.4
		l-0.5,0C43,192.3,35.4,179.6,28.9,179.7z"/>
	<path d="M28.5,157.6c-0.6-2.2-0.7-4.2-0.4-5.9c0.6-3.6,3.2-5.3,6.5-4.7c7.3,1.3,17.5,13.5,20,22.8c0.6,2.1,0.8,4.2,0.5,6
		c-0.6,3.6-3.2,5.3-6.5,4.7C41.3,179.2,31.1,167.2,28.5,157.6z M49.3,177.9c2.7,0.5,4.6-0.2,5.1-3c1.4-8-11.2-23.6-20.4-25.3
		c-2.7-0.5-4.6,0.2-5.1,3C27.4,160.6,40,176.3,49.3,177.9z"/>
	<path d="M43.3,122.3c-2.5-0.9-4.6,0.2-5.7,3.3c-1.3,3.6-0.3,8.2,2.7,9.3c1,0.4,1.7,0.2,2.4,0.4c0.9,0.3,1.1,1,0.8,1.5
		c-0.4,1-1.6,0.8-2.4,0.5c-4-1.5-6.1-7.5-4-13.1c1.3-3.6,4-5.6,7-4.4c5.9,2.2,8.1,15.7,11,37.3l5.4-14.6l1.8,1.2l-6.7,18.2l-0.5-0.2
		C51.9,139.2,49.4,124.5,43.3,122.3z"/>
	<path d="M60.7,132.5c0.3-0.6,0.9-0.7,1.5-0.3c0.2,0.1,0.5,0.4,0.9,0.6c0.8,0.4,2.4,0.4,3.6-1.9c3.3-5.9,0.9-17.4-4.8-20.7
		c-2.4-1.4-4.4-0.4-5.6,1.6c-1.9,3.4-1.8,7.4-0.7,10.8l-0.4,0.8l-6.2-20.9l5.8-10.2l1.5,1.5l-5.9,10.5l3.9,13.4
		c-0.1-2.4,0.5-4.9,1.8-7.1c1.7-3.1,4.5-4.2,7.3-2.6c6,3.4,7.7,16.8,3.9,23.5c-1.8,3.2-4.4,3.9-5.9,3.1
		C60.5,134,60.3,133.2,60.7,132.5z"/>
	<path d="M86.6,86.9c0.8,0.8,0.8,2.1,0,2.9c-0.8,0.8-2.1,0.8-2.9,0c-0.8-0.8-0.8-2.1,0-2.9C84.4,86.1,85.7,86.1,86.6,86.9z"/>
</g>
</svg>
