<svg id="Capa_1" data-name="Capa 1" xmlns="http://www.w3.org/2000/svg" viewBox="0 0 353.98 353.98"><defs><style>.cls-1{font-size:40px;font-family:Millionaire-Roman, Millionaire;}</style></defs><text class="cls-1" transform="translate(106.94 55.48) rotate(-26.74)">1</text><text class="cls-1" transform="translate(120.14 48.34) rotate(-18.53)">8</text><text class="cls-1" transform="translate(144.02 40.77) rotate(-11.21)"> </text><text class="cls-1" transform="translate(154.3 38.22) rotate(-3.99)">d</text><text class="cls-1" transform="translate(178.77 36.58) rotate(5.12)">e</text><text class="cls-1" transform="matrix(0.98, 0.2, -0.2, 0.98, 199.68, 38.7)"> </text><text class="cls-1" transform="translate(210.13 40.41) rotate(18.47)">o</text><text class="cls-1" transform="translate(231.92 47.74) rotate(27.36)">c</text><text class="cls-1" transform="matrix(0.82, 0.57, -0.57, 0.82, 249.72, 57.09)">t</text><text class="cls-1" transform="matrix(0.74, 0.67, -0.67, 0.74, 261.85, 64.95)">u</text><text class="cls-1" transform="matrix(0.62, 0.79, -0.79, 0.62, 279.37, 80.69)">b</text><text class="cls-1" transform="translate(293.96 99.55) rotate(59.95)">r</text><text class="cls-1" transform="matrix(0.39, 0.92, -0.92, 0.39, 301.91, 112.77)">e</text><text class="cls-1" transform="matrix(0.28, 0.96, -0.96, 0.28, 309.81, 132.23)"> </text><text class="cls-1" transform="translate(313.25 142.22) rotate(81)">d</text><text class="cls-1" transform="translate(317.17 166.35) rotate(90.93)">e</text><text class="cls-1" transform="translate(316.72 187.49) rotate(96.57)"> </text><text class="cls-1" transform="translate(315.94 198.06) rotate(103.49)">2</text><text class="cls-1" transform="translate(310.88 220.35) rotate(113.66)">0</text><text class="cls-1" transform="matrix(-0.56, 0.83, -0.83, -0.56, 300.14, 244.71)">2</text><text class="cls-1" transform="matrix(-0.68, 0.73, -0.73, -0.68, 287.48, 263.84)">5</text><text class="cls-1" transform="translate(271.08 280.81) rotate(140.13)"> </text><text class="cls-1" transform="matrix(-0.81, 0.58, -0.58, -0.81, 262.74, 287.81)"> </text><text class="cls-1" transform="matrix(-0.86, 0.52, -0.52, -0.86, 253.9, 294.13)"> </text><text class="cls-1" transform="matrix(-0.9, 0.43, -0.43, -0.9, 244.73, 299.8)">1</text><text class="cls-1" transform="translate(231.41 306.67) rotate(162.56)">8</text><text class="cls-1" transform="translate(207.38 313.8) rotate(169.88)"> </text><text class="cls-1" transform="matrix(-1, 0.05, -0.05, -1, 197.07, 316.15)">d</text><text class="cls-1" transform="translate(172.54 317.34) rotate(-173.79)">e</text><text class="cls-1" transform="translate(151.69 314.83) rotate(-167.31)"> </text><text class="cls-1" transform="translate(141.26 312.91) rotate(-160.43)">o</text><text class="cls-1" transform="matrix(-0.88, -0.48, 0.48, -0.88, 119.63, 305.17)">c</text><text class="cls-1" transform="matrix(-0.81, -0.58, 0.58, -0.81, 102.02, 295.49)">t</text><text class="cls-1" transform="translate(90.02 287.4) rotate(-136.72)">u</text><text class="cls-1" transform="matrix(-0.6, -0.8, 0.8, -0.6, 72.82, 271.34)">b</text><text class="cls-1" transform="translate(58.58 252.2) rotate(-118.97)">r</text><text class="cls-1" transform="translate(50.88 238.84) rotate(-111.69)">e</text><text class="cls-1" transform="matrix(-0.26, -0.97, 0.97, -0.26, 43.36, 219.25)"> </text><text class="cls-1" transform="matrix(-0.14, -0.99, 0.99, -0.14, 40.1, 209.17)">d</text><text class="cls-1" transform="matrix(0.02, -1, 1, 0.02, 36.79, 184.88)">e</text><text class="cls-1" transform="translate(37.48 163.87) rotate(-82.36)"> </text><text class="cls-1" transform="matrix(0.25, -0.97, 0.97, 0.25, 38.46, 153.31)">2</text><text class="cls-1" transform="translate(43.94 131.11) rotate(-65.26)">0</text><text class="cls-1" transform="matrix(0.57, -0.82, 0.82, 0.57, 55.15, 106.94)">2</text><text class="cls-1" transform="matrix(0.7, -0.72, 0.72, 0.7, 68.15, 88.08)">5</text></svg>