<svg width="843" height="573" viewBox="0 0 843 573" fill="none" xmlns="http://www.w3.org/2000/svg">
<g filter="url(#filter0_d_10205_6841)">
<path d="M225.967 521.397C244.217 525.278 276.905 530.688 289.113 533.111C301.322 535.534 330.715 540.031 347.272 541.069C363.816 542.133 417.703 536.463 430.664 535.212C443.625 533.96 482.824 520.028 499.078 514.024C515.339 508.039 557.746 497.232 574.473 490.734C591.2 484.236 633 463.346 661.854 441.821C690.708 420.297 705.317 411.046 713.026 405.19C720.734 399.335 755.191 364.202 766.881 352.752C778.545 341.288 796.685 315.964 805.907 298.712C815.136 281.481 822.539 260.431 823.426 238.958C824.326 217.46 821.195 200.361 819.874 191.108C818.573 181.849 814.557 160.962 808.394 150.415C802.231 139.868 776.088 103.145 771.743 96.3969C767.398 89.6488 764.589 74.6121 748.814 61.78C733.02 48.9541 714.147 33.3517 675.211 22.7849C636.275 12.218 606.049 6.10075 566.848 6.84116C527.648 7.58158 509.865 5.67336 484.955 10.3684C460.025 15.0696 437.973 23.8427 389.104 44.4833C340.229 65.1041 286.847 82.4662 254.431 99.8086C222.015 117.151 160.854 159.401 132.276 180.839C103.697 202.277 69.762 230.996 52.5169 259.175C35.2719 287.355 26.3393 304.494 23.9912 318.336C21.6172 332.164 16.0518 357.007 22.9447 376.992C29.8376 396.977 38.4 412.07 48.2925 423.329C58.1789 434.569 76.3164 457.906 86.2777 465.38C96.2588 472.849 119.023 491.34 141.708 499.151C174.881 510.595 186.788 513.091 225.967 521.397Z" fill="#E6007E"/>
</g>
<defs>
<filter id="filter0_d_10205_6841" x="0.613281" y="0.280762" width="841.973" height="572.42" filterUnits="userSpaceOnUse" color-interpolation-filters="sRGB">
<feFlood flood-opacity="0" result="BackgroundImageFix"/>
<feColorMatrix in="SourceAlpha" type="matrix" values="0 0 0 0 0 0 0 0 0 0 0 0 0 0 0 0 0 0 127 0" result="hardAlpha"/>
<feMorphology radius="6" operator="erode" in="SourceAlpha" result="effect1_dropShadow_10205_6841"/>
<feOffset dy="12.5"/>
<feGaussianBlur stdDeviation="12.5"/>
<feComposite in2="hardAlpha" operator="out"/>
<feColorMatrix type="matrix" values="0 0 0 0 0 0 0 0 0 0 0 0 0 0 0 0 0 0 0.25 0"/>
<feBlend mode="normal" in2="BackgroundImageFix" result="effect1_dropShadow_10205_6841"/>
<feBlend mode="normal" in="SourceGraphic" in2="effect1_dropShadow_10205_6841" result="shape"/>
</filter>
</defs>
</svg>
